<svg id="Layer_1" data-name="Layer 1" xmlns="http://www.w3.org/2000/svg" viewBox="0 0 3378.89 4000" height="100px" width="100px" transform="rotate(0) scale(1, 1)">
  <defs>
    <style>.cls-1 { fill: #f7f1ea; }</style>
  </defs>
  <path class="cls-1" d="M429.96,2401.5l-72.02,28.28c-16.45,6.46-26.51,23.17-24.52,40.74l8.73,76.88c.31,2.77-3.57,3.74-4.59,1.14l-28.28-72.02c-6.46-16.45-23.18-26.51-40.74-24.52l-76.88,8.73c-2.77.32-3.74-3.57-1.14-4.59l72.02-28.28c16.45-6.46,26.51-23.18,24.52-40.74l-8.74-76.88c-.31-2.77,3.57-3.74,4.59-1.14l28.28,72.02c6.46,16.46,23.17,26.51,40.74,24.52l76.88-8.74c2.77-.31,3.74,3.57,1.14,4.59ZM2930.28,692.35l-74.55-20.71c-17.03-4.73-28.76-20.32-28.58-38l.77-77.37c.03-2.79-3.94-3.35-4.68-.66l-20.71,74.55c-4.73,17.03-20.32,28.76-38,28.58l-77.37-.77c-2.79-.03-3.35,3.93-.66,4.68l74.55,20.71c17.03,4.73,28.76,20.32,28.58,38l-.77,77.37c-.03,2.79,3.93,3.35,4.68.66l20.71-74.55c4.73-17.03,20.32-28.76,38-28.58l77.37.77c2.79.03,3.35-3.93.66-4.68ZM901.96,206.77l-73.11,25.34c-16.7,5.79-35.21-.37-45.11-15.01l-43.35-64.1c-1.56-2.31-5.14-.52-4.23,2.12l25.34,73.11c5.79,16.7-.37,35.21-15.01,45.11l-64.09,43.34c-2.31,1.56-.52,5.14,2.12,4.23l73.11-25.34c16.7-5.79,35.21.37,45.11,15.02l43.35,64.09c1.56,2.31,5.14.52,4.23-2.12l-25.34-73.11c-5.79-16.7.37-35.21,15.01-45.11l64.09-43.34c2.31-1.56.52-5.14-2.12-4.23ZM1437.37,3438.86c-12.24,4.24-25.81-.27-33.06-11l-31.77-46.98c-1.14-1.69-3.77-.38-3.1,1.55l18.57,53.58c4.24,12.24-.27,25.81-11,33.07l-46.98,31.77c-1.69,1.14-.38,3.77,1.55,3.1l53.58-18.57c12.24-4.24,25.81.27,33.06,11.01l31.77,46.97c1.14,1.69,3.77.38,3.1-1.55l-18.57-53.58c-4.24-12.24.27-25.81,11-33.06l46.98-31.77c1.69-1.15.38-3.77-1.55-3.1l-53.58,18.57ZM271.54,2661.07c-6.67.76-13.02-3.06-15.48-9.32l-10.75-27.37c-.39-.99-1.86-.62-1.74.43l3.32,29.21c.76,6.67-3.06,13.03-9.32,15.48l-27.37,10.75c-.99.39-.62,1.86.43,1.74l29.21-3.32c6.67-.76,13.03,3.06,15.48,9.32l10.75,27.37c.39.99,1.86.62,1.74-.43l-3.32-29.21c-.76-6.67,3.06-13.02,9.32-15.48l27.37-10.75c.99-.39.62-1.86-.43-1.74l-29.21,3.32Z"/>
  <path class="cls-1" d="M3356.9,1741.26c-25.34-122.04-67.49-238.31-177.72-314.13-19.35-13.31-7.39-18.87,5.53-27.04,90.93-57.5,116.09-107.98,96.77-202.29-21.52-105.01-81.18-184.2-169.23-244.6-88.14-60.45-189.22-58.71-287.48-56.5-45.5,1.02-94.82,14.27-139.77,33.76-17.14,7.43-32.93,19.69-52.22,22.05-1.47.82-2.45,1.99-4.1,2.68-10.29,4.32-25.73-4.7-27.49-15.61-2.58-15.95-.26-33.24,7.12-47.98-.74-79.33.06-156.89-17.96-231.62-10.38-43.03-17.41-86.42-23.42-129.92-2.51-5.12-5.16-10.19-7.43-15.42-7.23-16.67-16.13-32.5-22.97-49.03-15.77-37.41-38.77-72.36-50.61-112.2-10.51-13.96-19.72-28.95-27.82-44.81-4.57-1.98-9.07-7.78-14.31-15.4-83.99-122.23-186.77-221.88-332.28-267.68-136.32-42.9-266.5-36.59-382.36,56.18-22.57,18.07-36.03,19-59.91,2.89-152.45-102.84-311.07-111.11-465.89-10.87-122.85,79.55-202.78,187.61-167.85,346.75,4.06,18.5-5.44,20.6-18,24.44-48.25,14.73-84.83,44.3-112.27,86.64-24.88,38.4-37.22,81.09-46.27,131.14-22.09-35.12-40.69-65.59-64.8-92.25-94.77-104.79-215.66-165.99-347.11-209.94-88.69-29.65-179.29-54.15-262.58-98.36-7.98-4.24-18.47-16.44-26.88-5.24-7.42,9.87,4.27,19.02,10.93,26,103.55,108.64,202.07,222.16,314.03,322.64,48.53,43.55,102.31,80.19,161.14,120.54-20.93,2.12-35.1,3.85-49.32,4.95-144.09,11.12-250.35,83.87-321.28,206.2-64.55,111.33-45.63,221.74,20.39,326.58,12.2,19.37,11.23,27.18-11.59,33.34-36.01,9.71-68.63,26.83-98.77,49.29C-13.22,1492.69-40.95,1782.04,49.09,1951.19c88.16,165.62,222.44,274.03,392.85,343.75,62.44,25.55,124.76,51.18,193.3,68.19-33.14,20.96-63.42,38.19-91.64,58.32-87.25,62.22-126.89,147.4-112.02,253.78,18.94,135.43,103.93,216.53,226.75,264.21,43.3,16.81,89.17,24.75,139.39,38.55-27.11,10.13-48.22,17.74-69.11,25.87-105.08,40.87-194.92,110.57-296.98,157.17-5.73,2.62-13.14,6.53-11.28,12.82,2.97,10.04,13.32,7.77,21.12,7.12,62.5-5.25,125.13-9.48,187.42-16.62,166.07-19.03,321.91-66.38,457.41-168.9,15.16-11.47,26.65-28.18,46.1-33.78,2.13,40.24-9.39,58.97-45.46,71.8-19.37,6.89-39.15,12.59-58.64,19.15-132.93,44.76-236.8,124.18-293.02,255.56-69.27,161.88-46.82,317.57,39.41,467.16,38.82,67.35,89.15,129.31,99.13,210.3.75,6.11,2.65,13.07,9.68,14.2,7.34,1.18,10.77-5.12,12.86-11.01,33.83-95.13,105.93-155.66,184.94-212.52,164.42-118.32,215.59-270.02,164.23-465.61-22.26-84.78-59.19-164.32-84.63-247.96-12.66-41.64-8.83-75.95,17.14-112.78,17.26-24.47,40.92-41.46,60.48-65.49,11.53,28.84,23.99,58.06,41.81,84.39,6.33,9.35,2.22,17.56-1.17,26.17-49.75,126.24,33.56,250.03,162.39,255.61,28.16,1.22,36.68,12.07,43.32,38.35,34.96,138.42,124.03,221.8,264.68,247.43,97.52,17.77,191.18.55,283.76-32.84,92.4-33.33,173.89-87.12,246.42-148.49,95.43-80.76,159.24-189.02,213.34-302.71,35.4-74.38,52.47-150.67,52.42-231.88,0-12.71,2.93-22.16,11.58-33,23.9-29.93,60.99-50.63,67.72-93.14.59-3.72,4.71-9.3,8.54-5.95,13.51,11.79,26.54-.95,38.37.38,93.52,10.47,181.04-6.55,266.43-45.45,109.84-50.04,205.79-118.55,278.35-214.36,156-205.96,191.95-439.49,140.42-687.72ZM913.78,559.74c25.98-48.76,64.36-82.57,117.82-97.24,20.55-5.64,27.78-13.67,23.19-36.48-28.08-139.56,32.16-243.21,141.12-321.07,120-85.75,250.98-102.41,388.69-43.58,35.15,15.02,67.04,35.89,98.45,57.41,10.09,6.91,17.14,10.55,29.08-.05,171.53-152.38,380.01-106.71,524.62-9.49,138.19,92.9,224.74,226.16,283.01,379.71,52.51,138.38,80.97,279.98,63.51,428.94-6.47,55.22-34.05,93.82-79.57,122.92-19.07,12.19-18.55-4.17-21.26-13.05-29.71-97.31-83.38-180.59-148.87-257.12-26.13-30.54-25.58-30.44-42.57,3.45-44.56,88.85-65.65,183.3-73.18,284.84-25.6-49.1-55.29-96.54-75.98-147.63-48.93-120.78-68.03-249.68-95-376.34-4.45-20.91-9.27-41.73-16.22-62.16,1.78,68.96,16.26,136.01,30.89,202.83,16.01,73.12,34.71,145.64,52.23,218.43-122.89-136.08-267.88-234.52-453.39-262.61-17.27-2.62-27.02-12.08-36.6-24.76-16.89-22.38-26.02-49.8-45.97-70.1,3.02,24.95,19.73,43.47,31.95,63.65,11.95,19.75,13.63,26.98-13.63,26.08-54.59-1.79-108.44,5.72-160.7,21.71-15.92,4.87-26.6,1.56-38.5-9.32-44.83-40.99-73.28-92.76-100.33-145.95-19.42-38.17-33.31-79.17-57.94-114.69,30.4,95.56,69.1,187.07,140.01,260.45,18.54,19.19,14.74,23.81-6.02,34.95-118.44,63.54-180.19,175.72-166.51,297.87,2.75,24.57,11.53,47.36,20.33,71.43-92.64-29.77-182.37-57.21-249.54-132.69-93.33-104.88-120.63-242.39-63.11-350.36ZM2402.89,1209.7c5.46,28.25,10.69,56.53,16.16,84.78,11.14,57.54,5.16,114.71-3.44,171.86-1.11,7.39-2.29,15.07-11.32,15.91-11.22,1.05-13.19-7.5-14.22-16.1-12.82-107.07-62.96-196.84-130.74-277.81-15.8-18.88-7.71-39.39-10.44-58.86-15.5-110.69,2.31-217.16,45.45-319.67,14.7-34.94,15.68-34.63,39.58-5.54,174.92,212.9,198.7,450.5,115.35,705.58-4.47,13.67-9.61,27.13-14.63,40.61-.66,1.77-2.46,3.12-3.74,4.66l-10.52.29c22.79-145.3,28.12-289.08-33.39-426.73,5.3,27.01,10.68,54,15.9,81.03ZM1795.52,2486.45c55.98-101.6,128.07-186.09,233.72-242.07,153.73-81.46,260.28-208.7,327.12-368.36,12.71-30.36,30.47-48.74,59.73-60.07,81.55-31.56,163.7-61.12,249.7-78.31,17.93-3.58,42.07-11.04,52.12,3.83,8.13,12.02-12.76,27.41-22.46,39.76-33.01,41.98-64.98,85.37-108.34,117.53-25.13,18.65-26.44,44.89-28.91,71.38-11.87,127.57-55.07,244.06-124.54,351.05-75.15,115.75-186.19,189.98-302.65,256.88-209.14,120.15-435.6,145.92-671.29,120.49-28.35-3.06-32.8-12.07-24.59-38.95,38.24-125.15,110.51-226.17,211.91-307.34,7.81-6.26,17.36-14.26,26.33-14.55,78.19-2.59,154.88-14.35,231.92-34.43-80.77,82.78-140.48,176.05-162.72,290.34,17.56-35.78,33.73-72.32,52.94-107.19ZM2344.4,1845.83c-53.25,136.78-137.15,246.66-253.23,333.93-2.02,1.52-5.1,1.63-13.86,4.22,88.73-111.76,91.88-235.27,68.88-363.07,0,50.73,2.81,101.64-.63,152.13-5.83,85.71-37.75,161.4-97.55,224.4-20.79,21.91-44.96,34.31-76.01,34.68-115.77,1.36-229.13-10.31-327.4-77.86-58.56-40.25-105.02-95.02-152.68-147.63-9.57-10.57-17.61-22.79-30.24-30.31,86.64,123.09,182.4,233.46,343.95,257.78,51.96,7.82,103.57,15.96,157.69,11.77-14.93,15.37-26.83,21.81-72.25,34.96-267.6,77.49-507.63,16.75-726.95-146.1-39.71-29.49-75.08-63.95-110.46-98.43-14.33-13.97-12.63-20.51,3.68-31.85,95.04-66.09,201.51-85.36,314.02-76.31,32.26,2.59,50.85-5.8,67.52-33.7,62.02-103.81,136.3-196.66,251.21-246.33,116.07-50.17,234.57-69.47,355.5-15.94,19.51,8.64,29.41-4.05,39.73-14.16,56.48-55.34,122.55-92.87,199.66-110.76,32.37-7.51,65-8.68,98.09-5.95,17.84,1.47,20.42,9.49,20.21,26.16-1.4,109.6-18.54,214.76-58.87,318.36ZM2207.43,1087.78c4.76,11.35,8.91,22.98,12.78,34.66,2.2,6.63,3.26,13.64,5.75,24.48-172.42-120.64-347.57-229.21-533.11-320.3,49,40.19,107.58,64.81,160.64,98.4,44.84,28.39,93.39,50.9,134.83,84.69-34.85-9.74-69.84-18.97-104.42-29.53-22.62-6.91-34.83-1.64-38.69,23.31-3.74,24.17-3.3,55.43-18.1,69.63-14.72,14.13-43.48-6.14-66.63-8.45-28.85-2.88-58.72-6.97-85.81,1.74-43.87,14.11-79.99.09-116.45-20.49-9.61-5.43-20.31-8.93-33.25-8.29,23.97,13.41,47.94,26.81,74.13,41.46-31.09,14.22-59.72,25.13-86.24,39.84-91.88,50.92-161.71,122.85-201.45,221.21-8.17,20.21-16.66,21.12-33.9,11.01-82.98-48.64-109.32-133.32-63.62-206.45,9.52-15.24,21.61-28.56,37.08-36.22,27.03-13.39,25.35-29.3,11.18-51.48-44.14-69.1-52.7-143.56-17.98-217.51,41.23-87.82,109.61-148.03,205.31-173.05,172.96-45.23,330.22-3.49,475.72,91.31,125.89,82.02,223.46,189.85,282.22,330.03ZM2213.13,1419.13c38.6,68.72,38.34,68.84-30.27,102.61-33.43,16.45-63.9,37.33-91.33,62.48-11.28,10.34-17.61,13.51-25.62-4.59-9.63-21.75-23.65-41.56-35.96-62.12,5.59,27.09,23.32,49.08,31.73,75.01,2.23,6.88,6.42,13.64,1.09,20.29-6.19,7.73-13.01,2.33-19.35-.5-80.29-35.78-163.55-37.71-247.61-18.79-23.91,5.38-32.65-.36-38.45-23.11-16.84-66.08-22.53-131.3,2.64-196.82,13.75-35.78,34.44-65.61,67.48-85.33,17.54-10.46,23-23.79,20.24-43.57-10.23-73.35-.05-145.38,14.55-217.27,4.38-21.59,10.64-28.75,34.26-21.98,136.65,39.15,263.03,95.96,356.43,207.99,58.03,69.6,98.75,148.44,115.59,238.77,4.03,21.6-1.78,26.37-22.43,27.04-28.54.92-62.98,17.27-83.67,6.14-20.27-10.9-24.91-48.86-39.17-73.33-28.39-48.72-53-100.18-94.42-140.14,28.12,49.05,56.56,97.91,84.25,147.2ZM1448.08,1826.61c3.21,30.68-22.92,51.32-39.87,73.42-8.25,10.76-14.64-5.63-19.67-11.47-61.81-71.61-84.6-158.11-94.3-249.54-1.69-15.97-2.33-32.31-12.92-53.46,2.91,108.8,16.26,207.33,82.08,291.35,5.91,7.54,18.86,14.91,13.36,25.26-4.17,7.85-17.12,1.4-25.94,2.86-29.57,4.86-46.13-9.42-61.27-33.86-70.61-113.97-108.27-234.4-82.1-369.82,4.67-24.18,10.49-35.15,39.1-28.09,93.99,23.2,164.96,75.33,213.9,158.68,10.2,17.36,12.39,32.98,5.56,52.36-16.18,45.91-23.09,92.9-17.93,142.3ZM1114.5,1730.18c35.29,57.22,77.49,108.71,129.51,151.78,7.73,6.4,22.14,11.62,19.93,21.25-2.47,10.74-17.49,6.47-27.15,8.27-49.64,9.27-99.22,19.25-141.6,48.83-15.94,11.12-22.73,3.19-32.17-8.48-47.52-58.77-78.94-125.95-94.7-198.78-29.52-136.42-25.95-271.61,29.37-402.44,22.59-53.42,22.57-53.72,78.57-35.93,60.75,19.3,114.49,50.52,159.58,95.96,11.5,11.59,22.02,23.87,28.74,39.97-69,1.53-67.46,1.79-79.19,71.93-17.94,107.23,5.79,206.04,54.86,300.69,9.57,18.45,18.19,37.39,27.22,56.12-92.72-68.35-156.57-156.41-183.77-269.61-10.3-42.86-21.15-85.59-32.56-131.63-5.53,52.07,32.25,201.64,63.35,252.07ZM1818.47,1157.18c10.81,21.9,4.52,52.23,5.88,78.83,1.5,29.21-32.98,66.46-63.02,64.66-96.2-5.75-184.87-36.44-265.4-88.49-38.9-25.15-37.89-35.56.54-59.68,92.02-57.75,190.94-84.11,299.57-61.3,14.58,3.06,32.23,3.85,27.84,27.49-4.54,24.47-21.12,12.29-33.68,11.71-10.21-.47-20.36-2.37-30.57-3.13-4.93-.36-9.94.44-18.14.88,26.77,15.2,64.55,3.86,76.97,29.01ZM1633.54,1304.98c.57,8.76-4.18,12.96-12.84,11.84-7.85-1.02-12.77-5.25-12.22-13.85.43-6.76,3.28-11.33,10.93-10.92,7.33,1.53,13.58,4.52,14.13,12.93ZM1556.31,1334.07c-9.75.63-14.43-5.72-14.98-14.97-.47-7.84,2.21-14.71,11.08-14.59,9.15.13,13.67,7.08,16.14,15.08.14,8.64-4.3,13.96-12.24,14.47ZM1409.51,1474.21c1.42-13.08,4.65-27.83,21.83-27.28,10.18.32,18.63,7.44,19.57,20.49-3.51,12.64-10.7,24.29-24.81,26.47-12.9,2-17.78-8.67-16.6-19.68ZM1412.87,1513.79c-1.1,5.6-1.04,12.8-9.83,11.24-6.33-1.12-10.54-5.63-10.75-12.35-.18-5.86-.15-13.25,7.85-13.29,8.32-.04,10.77,7.37,12.73,14.41ZM1438.23,1508.65c7.24.99,7.71,8.27,7.75,14.54-.07,6.84-2.24,12.26-10.27,11.61-7.16-.58-10.76-5.24-9.91-12.33.87-7.33,3.25-15.09,12.43-13.82ZM1451.53,1546.39c10.59,1.43,18.19,7.19,19.12,19.13.67,8.5-3.98,14.29-12.6,13.22-9.93-1.23-16.37-8.26-18.02-18.04-1.27-7.53.46-14.51,11.49-14.31ZM1471.22,1497.58c10.73-.75,17.94,5.29,17.83,16.1-.11,11.14-6.46,20.42-18.02,20.63-12.07.23-8.09-11.52-9.95-18.64-1.14-8.62-1.32-17.3,10.14-18.1ZM1469.25,1594.77c15.79-15.07,14.56-31.65,16.19-50.59,9.23,21,23.14,41.18,13.54,64.52-2.87,6.97-3.97,24.88-18.03,16.56-8.89-5.26-20.93-21.67-11.7-30.48ZM1486.94,1478.5c-13.6.37-19.74-9.22-20.04-21.93-.33-13.74,9.17-20.67,20.84-22.06,12.98-1.55,17.2,8.01,17.46,19.65-3.03,10.48-3.42,23.93-18.26,24.33ZM1501.27,1416.59c-10.46-1.49-16.42-8.89-14.61-19.64,1.67-9.92,7.67-16.62,20.66-15.97,9.77,1.51,13.75,9.15,12.31,19.51-1.4,10.11-7.12,17.7-18.36,16.1ZM1503.26,1290c12.32-1.14,16.7,9.12,19.21,19.48-3.04,12.56-8.1,26.05-21.29,26.92-11.25.74-20.03-9.69-20.43-22.32-.47-14.71,9.31-22.86,22.51-24.08ZM1479.59,1280.49c-12.64.2-17.23-9.26-17.41-20.57-.2-12.17,6.85-18.4,18.57-20.2,11.19,1.59,19.38,6.73,19.38,19.17,0,13.24-7.59,21.39-20.54,21.59ZM1521.04,1270.55c-.25-6.16.46-13.56,8.78-13.33,11.13.31,19.16,6.02,21.68,16.65.22,9.23-3.16,15.79-11.65,16.04-12.39.36-18.32-7.59-18.8-19.37ZM1510.59,1354.21c.13-9.09,8.15-10.93,15.14-11.36,8.59-.52,13.1,4.5,12.07,13.26-.95,8.05-5.27,12.86-14.56,12.26-7.16-1.66-12.77-6.23-12.65-14.16ZM1568.29,1286.62c-.41-5.39,2.44-9.61,9.26-9.65,8.31,2.86,13.01,9.04,13.05,18,.02,3.98-2.31,8.41-7.3,7.87-9.37-1.01-14.34-7.28-15-16.21ZM1474.19,1218.15c1.47,8.72-4.01,10.3-8.67,11.62-4.81,1.37-7.88-1.6-8.19-6.39-.33-5.17.25-11.96,5.79-12.51,3.68-.37,7.94,5.06,11.07,7.27ZM1469.31,1302.4c-.9,6.59-.57,15.61-10.71,15.9-6.47.18-8.84-4.69-7.65-10.49,1.31-6.4,3.52-12.62,5.27-18.68,9.15,2.18,14.06,6.14,13.08,13.27ZM1461.46,1333.82c13.87-.22,20.44,11.13,22.93,21.8-.14,15.34-6,24.5-19.31,25.66-16.08,1.41-21.63-9.86-21.93-23.29-.27-12.08,5-23.96,18.31-24.18ZM1449.24,1395.48c11.41,2.68,20.57,8.38,19.84,20.15-.6,9.84-4.52,21.61-17.7,20.24-10.22-1.06-20.09-6.99-19.52-19.48.49-10.73,5.77-19.25,17.37-20.91ZM1437.52,1227.75c.4,7.12-.91,14.33-1.46,21.5-6.34,77.2-19.52,152.73-53,223.56-9.36,19.79-17.84,27.9-41.2,13.64-45.34-27.69-46.27-25.88-32.9-79.04,18.2-72.36,53.82-135.12,104.42-189.51,5.9-6.34,11.76-18.68,21.08-14.96,10.16,4.05,2.58,16.27,3.06,24.82ZM1535.25,1590.17c39.65-59.31,97.48-95.76,160.24-125.84,17.46-8.37,26.34-6.13,25.71,16.11-1.02,36.32,8.75,71.15,18.27,105.83,2.89,10.52,5.54,20.28-8.66,24.74-109.27,34.36-190.64,105.97-264.72,204.43-2.93-90.68,25.76-160.35,69.17-225.28ZM1723.24,1425.75c-1.28,9.75-8.04,12.89-16.33,15.85-68.85,24.56-129.32,61.49-175.22,119.76-2.95,3.74-7.51,8.84-11.23,8.77-6.5-.13-4.86-7.7-5.72-12.2-1.89-10.02-2.93-20.19-3.44-23.92,1.15-107,87.37-196.57,179.93-219.25,16.75-4.11,36.36,2.87,54.56,5.4,13.35,1.86,9.46,10.42,5.91,18.21-12.79,28.06-24.41,56.5-28.46,87.38ZM1230.96,1095.86c-91.97,90.35-79.78,198.66,29.61,270.46,6.86,4.5,14.04,8.56,21.29,12.42,11.73,6.24,11.81,15.94,7.69,26.36-2.91,7.36-.42,19.76-9.1,21.23-10.07,1.7-12.74-11.24-18.57-17.72-60.73-67.53-137.31-106.25-225-125.58-21.73-4.79-32.52,6.55-41.33,23.27-30.49,57.92-48.87,119.85-58.52,184.22-3.07,20.49-6.66,31.39-31.63,27.08-24.35-4.21-49.39,1.99-72.6,10.47-17.84,6.52-29.25,1.57-39.4-12.78-64.4-91.11-68.99-188.78-20.88-285.79,63.79-128.62,175.41-187.23,314.92-197.37,51.84-.95,97.9,14.3,140.6,41.64,10.64,6.81,14.71,10.48,2.9,22.08ZM909.36,1536.24c23.65,1.16,21.07,17.06,21.14,32.68.43,93.02,7.26,184.84,45.67,271.66,18.4,41.58,38.27,82.13,68.43,116.45,15.47,17.61,17.4,31.48-5.49,42.82-26.73,13.25-21.48,26.1-3.72,45.13,100.68,107.86,218.5,189.65,357.38,240.48,9.19,3.36,18.11,7.48,26.55,13.13-29.22.01-56.71-8.04-84.09-15.95-149.76-43.26-281.21-114.16-375.13-244.07-36.46-50.43-75.97-98.65-109.55-151.19-.71,17.48,10.69,30.08,18.56,43.86,122.04,213.79,301.41,346.51,546.72,385.34,23.32,3.69,47,5.18,70.54,7.33,23.29,2.13,46.61,3.81,72.86,5.93-38.42,25.31-113.53,41-180.04,29.36-204.7-35.8-393.38-110.86-556.13-242.82-73.88-59.91-115.25-142.76-108.03-235.15,5.48-70.02,14.64-139.2,15.22-210.3.77-94.05,99.72-138.58,179.1-134.69ZM499.4,601.14c-110.03-93.31-202.94-203.88-303.16-307.08-3.09-3.18-3.85-8.63-5.61-13.1,75.76,39.78,157.51,63.46,238.33,89.67,135.7,44,261.28,105.02,358.14,214.13,49.74,56.03,82.06,119.57,86.68,200.27-60.47-35.67-126.98-43.68-190.45-62.16-71.44-20.8-127.59-73.93-183.95-121.72ZM248.56,2161.63c-101.09-71.64-173.92-170.86-210.51-290.19-52.31-170.64-8.38-398.54,174.07-523.26,30.17-20.63,64.13-34.43,99.66-39.65,33.13-4.87,24.34-16.91,11.79-34.53-27.7-38.9-48.59-81.2-59.71-127.8-30.96-129.66,26.57-226.22,118.83-307.59,89.43-78.88,198.8-95.05,312.37-86.7,32.51,2.39,63.84,20.68,95.71,31.79,1.36-10.12,6.93-10.1,15.03-6.61,44.48,19.21,86.61,38.22,111.94,85.84,32.16,60.45,82.58,106.32,147.13,144.27-27.11,6.17-47.87,10.23-68.26,15.65-161.83,43.03-279.49,184.32-276.28,333.89,1.32,61.52,13.29,120.76,54.91,169.85,6.33,7.47,17.42,15.9,2.7,24.56-12.46,7.33-19.22,31.34-40.46,16.04-19.18-13.8-38.51-27.47-56.86-42.33-103.26-83.53-176.16-188.96-223.66-316.87q-1.7,23.45,4.89,42.74c46.52,137.15,137.01,239.71,254.18,320.59,17.49,12.08,22.58,18.63,10.19,39.91-24.85,42.7-24.95,90.31-12.67,137.62,3.38,13,7.18,24.98,2.86,38.99-43.91,142.43-7.59,261.73,107.97,356.73,31.05,25.53,63.71,48.83,98.65,68.69,33.79,19.21,68.19,37.38,101.26,57.65-325.22-61.11-592.27-210.18-761.47-507.97,84.47,161.22,195.78,295.2,357.03,383.75,157.76,86.64,327.91,133.86,504.78,161.74l-.43,9.4c-36.43,7.45-72.95,14.53-109.29,22.41-283.67,61.5-536.27-15.59-766.35-178.64ZM463.54,3162.92c135.16-74.64,257.11-157.71,407.6-179.04,95.44-13.53,189.09-36.86,280.34-78.83-113.42,147.03-341.34,241.09-687.95,257.87ZM738.8,3644.44c-18.59-46.14-26.07-87.31,5.42-135.45,91.97-140.63,198.52-269.51,305.86-398.04,8.12-9.72,20.24-17.28,20.68-32.04-40.04,27.73-67.18,67.75-97.6,104.35-91.16,109.7-180.88,220.57-253.3,351.15-8.78-30.72-6.6-55.78-3.82-80.49,22.48-199.6,135.12-324.65,322.19-387.25,18.88-6.32,43.63-23.78,56.35-11.75,10.19,9.63-11.28,33.93-16.8,52.36-29.74,99.19-88.79,181.52-149.56,263.22-60.71,81.63-117.79,165.85-170.73,252.79-4.69,7.71-7.45,17.2-18.69,21.15ZM757.52,3689.82c-9.4-3.2-12.11-15.86-10.82-26.46.57-4.74,3.94-9.32,6.64-13.6,59.82-94.71,122.82-187.26,189.46-277.31,2.53-3.42,6.53-5.76,10.11-8.41-34.11,67.35-77.58,129.11-115.56,194.16-22.27,38.14-44.22,76.47-66.55,114.58-3.79,6.48-5.42,19.72-13.28,17.05ZM766.64,3721.14c-7.57-13.54,1.56-23.77,7.79-34,72.64-119.44,145.51-238.75,218.92-359.07-17.23,175.81-101,326.35-175.02,484.98-17.77-31.58-34.8-61.71-51.69-91.9ZM881.67,3949.38c-12.91-44.77-26.6-78.66-47.22-109.29-5.29-7.85-3.08-15.57.05-23.47,27.57-69.64,57.03-138.41,96.87-203.71-16.03,108.53-32.06,217.06-49.7,336.47ZM977.66,3838.66c-28.76,27.99-51.86,60.49-78.06,92.53,16.47-101,32.93-202,49.41-303,11.94,63.23,15.74,127.01,34.89,188.14,2.75,8.78.28,15.99-6.23,22.32ZM1062.98,3771.77c-9.73,5.62-18.42,13.01-27.59,19.6-40.32,28.95-38.87,28.63-49.43-18.69-32.71-146.61-18.77-289.5,31.38-429.88.9-2.53,3.31-4.53,7.15-9.59-1.7,31.93-3.68,60.39-4.65,88.88-3.64,107.1,13.61,210.7,55.27,309.55,8.11,19.24,4.99,30.26-12.13,40.13ZM1101.15,3740.26c-15.78,6.79-14.94-9.41-17.84-17.39-40.84-112.16-60.19-227.33-46.9-346.92,10.56,86.19,22.71,172.11,47.23,255.63,7.77,26.48,17.8,52.37,28.16,77.98,5.87,14.5,1.91,25.3-10.64,30.7ZM1133.04,3711.34c-14.7,3.9-13.54-9.85-16.35-17.12-30.58-79.22-45.26-162.24-56.74-245.84-4.75-34.6-5.69-69.7-9.66-104.42-9.7-84.81,19.7-160.84,51.69-236.53-19.04,176.18,16.49,343.66,78.07,507.18,10.76,28.57-17.68,88.96-47.01,96.73ZM1234.57,3333.6c21.66,91.42,21.93,181.19-18.24,268.21-3.65,7.89-5.38,20.98-15.86,20.29-10.49-.69-9.95-13.95-12.91-22.15-53.45-148.3-85.38-300.09-73.18-458.83,1.41-18.39,4.42-36.71,7.73-54.86,2.92-16.04,7.29-31.81,13.51-58.24,24.36,112.05,74.97,204.36,98.95,305.58ZM1250.55,2848.53c-3.95-26.18-15.53-26.25-32.25-13.15-72.4,56.73-157.54,84.46-245.08,104-164.14,36.62-316.92,11.67-442.48-106.45-111.27-104.68-122.53-303.82,39.38-406.1,57.68-36.44,113.91-57.18,185.05-48.12,121,15.41,239.7-10.62,356.56-40.78,33.09-8.54,62.87-9.49,95.76,2.09,65.07,22.91,132.15,39.04,201.56,42.84,52.96,2.9,103.62-9.3,161.16-29.23-238.23,192.1-507.81,271.45-799.72,288.81,325.21,8.79,607.3-104.09,858.87-304.97-46.95,47.89-93.78,93.25-130.48,147.83-41.67,61.99-74.13,128.08-90.74,201.32-3.82,16.82-16.55,32.51,20.83,25.95,37.01-6.49,77.27,5.92,116.15,9.58,20.37,1.92,40.83,2.85,67.79,4.67-75.84,60.85-164.64,74.3-247.69,102.4,66.93-2.14,134.36-10.98,190.78-45.57,67.59-41.43,136.96-62.12,215.66-67.7,94.68-6.71,185.71-34.67,272.99-73.06,6.92-3.05,14.53-11.65,22.21-4.44,6.36,5.97-.11,13.78-2.96,19.76-99.78,209.68-252.97,356.47-487.27,400.54-108.7,20.45-206.87-5.82-278.98-97.52-25.99-33.05-40.88-71.59-47.09-112.73ZM2526.41,2847.33c-10.84,140.91-64.15,264.51-152.99,373.73-111.23,136.75-245.56,239.32-418.72,284.62-62.26,16.29-125.42,22.15-189.59,12.27-139.85-21.54-232.97-107.51-262.56-246.15-5.93-27.78-15.85-40.51-45.86-40.48-58.49.04-107.42-20.61-143.37-70.46-32.76-45.43-32.52-93.59-21.04-144.29,2.93-12.96,7.11-21.05,22.14-8.31,115.52,97.98,245,91.19,375.09,41.26,169.53-65.07,291.9-184.7,373.76-346.26,4.62-9.13,9.24-18.27,13.99-27.33.33-.63,1.77-.69,3.25-1.21,46.92,237.2-77.24,411.09-213.86,580.56,142.44-151.48,261.01-313.36,232.22-548.39,26.55,29.03,42.59,52.72,64.94,70.17,100.99,78.83,210.1,98.66,329.78,46.68,34.29-14.89,35.71-13.85,32.83,23.6ZM3175.94,2445.99c-106.86,117.37-236.35,201.07-396.88,226.53-42.91,6.8-86.2-.35-128.7-7.47-24.56-4.11-39.28.79-45.31,27.1-10.77,46.98-44.33,74.34-84.92,96.03-112.62,60.17-222,60.81-328.24-14.98-30.68-21.89-55.77-48.9-73.67-81.92-28.82-53.18-23.79-69.98,27.71-98.97,52.98-29.82,103.41-63.45,151.67-100.42,6.32-4.84,15.49-13.24,20.13-11.49,10.38,3.92,4.79,16.12,5.13,24.68,2.4,59.22,32.22,140.78,73.47,192.53-13.8-32.43-25.43-58.42-35.92-84.87-7.56-19.07-15.36-38.34-19.99-58.23-11.94-51.21-13.26-98.28,38.02-134.24,23.56-16.52,40.2-43.76,57.77-67.75,17.48-23.88,32.19-49.79,52.91-82.34,1.37,103.32,28.67,190.15,97.17,261.1-5.69-10.74-10.91-21.75-17.15-32.16-27.64-46.12-50.91-93.46-59.27-147.81-9.07-59-9.81-114.55,17.32-171.09,32.23-67.17,44.74-140.96,50.71-215.19,2.03-25.26,11.54-43.7,31.49-60.14,52.02-42.86,90.9-97.63,130.92-151.21,15.66-20.97,8.62-31.17-14.92-35.51-47.37-8.74-91.85,4.71-136.47,17.2-21.22,5.94-42.34,12.21-63.5,18.33,102.12-57.71,214.97-61.46,327.27-67.86-144.83-9.25-283.34,9.41-408.74,92.09,40.15-47.68,84.26-90.14,133.32-127.63,50.11-38.28,102.47-71.87,163.02-92.08,59.05-19.71,118.9-36.66,177.74-58.81-23.58,4.64-47.12,9.45-70.74,13.89-176.76,33.26-310.12,135.79-425.8,266.59-4.76,5.38-8.73,11.82-14.4,15.94-4.61,3.35-12.8,7.03-16.57,5.08-6.2-3.2-2.16-10.97-.46-16.7,14.4-48.45,23.8-97.87,29.76-148.03,2.76-23.23,19.13-40.67,27.27-61.74,59.73-154.56,88.4-312.58,53.1-477.53-3.61-16.87,1.41-26.61,13.73-36.95,137.08-115.05,291.72-167.42,471.17-135.08,133.48,24.05,253.81,145,276.48,279.53,15.01,89.08-22.28,152.95-110.2,190.08-10.55,4.45-28.54,2.4-28.82,18.05-.23,12.58,16.57,7.11,24.87,12.93,53.93,37.82,97.13,84.05,129.01,142.56,142.4,261.33,99.77,658.01-100.48,877.95ZM2473.7,163l-.67,1.2.42-1.58c.08.13.16.25.25.38ZM2496.34,172.24c-.1-.17-.22-.34-.32-.51h1.3s-.98.51-.98.51ZM1236.8,373.73c-.4-.65-.79-1.31-1.19-1.96.38.51.89.97,1.11,1.55.05.13.04.28.07.41ZM1237.14,375.66c-.1-.66-.19-1.31-.35-1.92.28.47.57.94.85,1.41,0,0-.52.54-.5.52ZM793.24,783.21c-.86.29-1.72.58-2.58.88,0,0,.52-.21.6-.28.71-.25,1.35-.42,1.98-.6ZM1449.53,1955.77c2.94,5.55,5.87,11.09,8.8,16.65-5.03-4.4-7.27-10.33-8.8-16.65ZM1458.33,1972.42c.55.48.95,1.03,1.57,1.47,0-.01-.53.54-.52.52-.35-.67-.7-1.33-1.05-1.99ZM1449.15,1954.33c.11.49.26.95.38,1.44-.27-.51-.54-1.01-.8-1.52l-1.25-.24s1.06-.07,1.06-.1c0,0,.02.01.02.01,0-.01-.01-.02-.02-.04l.61.44ZM2028.9,1515.83s.64.29.64.29l-1.72-.32s1.06.04,1.08.03ZM850.47,1886.52l-1.72-.21s1,.02,1.02,0c.02-.02.69.21.69.21ZM1077.63,3072.51s-.54-.54-.53-.54c.26-.18.53-.36.79-.53-.09.36-.17.71-.26,1.07ZM1081.8,3068.79c-1.3.89-2.61,1.77-3.91,2.66.36-1.51.72-3.02,1.08-4.52.94.62,1.89,1.24,2.83,1.87ZM1077.63,3072.51c-.68-.01-.97.38-1.54.49.34-.34.68-.68,1.01-1.02,0,0,.53.54.53.54ZM1076.09,3073c-1.5,1.52-3,3.04-4.51,4.56.46-2.62,2.01-4.1,4.51-4.56ZM1070.89,3078.25c.23-.23.46-.46.68-.69-.07.39-.36.55-.38.99,0,0-.3-.3-.3-.3Z"/>
</svg>