<?xml version="1.0" encoding="UTF-8"?>
<svg id="Layer_1" data-name="Layer 1" xmlns="http://www.w3.org/2000/svg" viewBox="0 0 628.98 744.6">
  <defs>
    <style>
      .cls-1 {
        fill: #454755;
      }
    </style>
  </defs>
  <path class="cls-1" d="M80.04,447.04l-13.41,5.26c-3.06,1.2-4.94,4.31-4.56,7.58l1.63,14.31c.06.52-.66.7-.85.21l-5.26-13.41c-1.2-3.06-4.31-4.94-7.58-4.56l-14.31,1.63c-.52.06-.7-.66-.21-.85l13.41-5.26c3.06-1.2,4.94-4.31,4.56-7.58l-1.63-14.31c-.06-.52.66-.7.85-.21l5.26,13.41c1.2,3.06,4.31,4.94,7.58,4.56l14.31-1.63c.52-.06.7.66.21.85ZM545.47,128.88l-13.88-3.86c-3.17-.88-5.35-3.78-5.32-7.07l.14-14.4c0-.52-.73-.62-.87-.12l-3.86,13.88c-.88,3.17-3.78,5.35-7.07,5.32l-14.4-.14c-.52,0-.62.73-.12.87l13.88,3.86c3.17.88,5.35,3.78,5.32,7.07l-.14,14.4c0,.52.73.62.87.12l3.86-13.88c.88-3.17,3.78-5.35,7.07-5.32l14.4.14c.52,0,.62-.73.12-.87ZM167.9,38.49l-13.61,4.72c-3.11,1.08-6.55-.07-8.4-2.79l-8.07-11.93c-.29-.43-.96-.1-.79.39l4.72,13.61c1.08,3.11-.07,6.55-2.79,8.4l-11.93,8.07c-.43.29-.1.96.39.79l13.61-4.72c3.11-1.08,6.55.07,8.4,2.8l8.07,11.93c.29.43.96.1.79-.39l-4.72-13.61c-1.08-3.11.07-6.55,2.79-8.4l11.93-8.07c.43-.29.1-.96-.39-.79ZM267.57,640.14c-2.28.79-4.8-.05-6.15-2.05l-5.91-8.74c-.21-.32-.7-.07-.58.29l3.46,9.97c.79,2.28-.05,4.8-2.05,6.16l-8.74,5.91c-.32.21-.07.7.29.58l9.97-3.46c2.28-.79,4.8.05,6.15,2.05l5.91,8.74c.21.32.7.07.58-.29l-3.46-9.97c-.79-2.28.05-4.8,2.05-6.16l8.74-5.91c.32-.21.07-.7-.29-.58l-9.97,3.46ZM50.55,495.36c-1.24.14-2.42-.57-2.88-1.73l-2-5.09c-.07-.18-.35-.12-.32.08l.62,5.44c.14,1.24-.57,2.42-1.73,2.88l-5.09,2c-.18.07-.12.35.08.32l5.44-.62c1.24-.14,2.42.57,2.88,1.73l2,5.09c.07.18.35.12.32-.08l-.62-5.44c-.14-1.24.57-2.42,1.73-2.88l5.09-2c.18-.07.12-.35-.08-.32l-5.44.62Z"/>
  <path class="cls-1" d="M624.88,324.13c-4.72-22.72-12.56-44.36-33.08-58.47-3.6-2.48-1.38-3.51,1.03-5.03,16.93-10.7,21.61-20.1,18.01-37.66-4.01-19.55-15.11-34.29-31.5-45.53-16.41-11.25-35.22-10.93-53.51-10.52-8.47.19-17.65,2.66-26.02,6.28-3.19,1.38-6.13,3.67-9.72,4.11-.27.15-.46.37-.76.5-1.92.8-4.79-.87-5.12-2.91-.48-2.97-.05-6.19,1.32-8.93-.14-14.77.01-29.2-3.34-43.12-1.93-8.01-3.24-16.09-4.36-24.18-.47-.95-.96-1.9-1.38-2.87-1.35-3.1-3-6.05-4.28-9.13-2.94-6.96-7.22-13.47-9.42-20.89-1.96-2.6-3.67-5.39-5.18-8.34-.85-.37-1.69-1.45-2.66-2.87-15.63-22.75-34.77-41.3-61.85-49.83-25.38-7.99-49.61-6.81-71.18,10.46-4.2,3.36-6.71,3.54-11.15.54-28.38-19.14-57.91-20.68-86.72-2.02-22.87,14.81-37.75,34.92-31.24,64.55.76,3.44-1.01,3.84-3.35,4.55-8.98,2.74-15.79,8.25-20.9,16.13-4.63,7.15-6.93,15.1-8.61,24.41-4.11-6.54-7.57-12.21-12.06-17.17-17.64-19.51-40.14-30.9-64.61-39.08-16.51-5.52-33.38-10.08-48.88-18.31-1.49-.79-3.44-3.06-5-.98-1.38,1.84.8,3.54,2.03,4.84,19.28,20.22,37.62,41.35,58.46,60.06,9.03,8.11,19.04,14.93,30,22.44-3.9.39-6.53.72-9.18.92-26.82,2.07-46.6,15.61-59.81,38.38-12.02,20.72-8.49,41.28,3.8,60.79,2.27,3.61,2.09,5.06-2.16,6.21-6.7,1.81-12.78,4.99-18.39,9.17-36.54,27.22-41.71,81.09-24.94,112.57,16.41,30.83,41.41,51.01,73.13,63.99,11.62,4.76,23.22,9.53,35.98,12.69-6.17,3.9-11.81,7.11-17.06,10.86-16.24,11.58-23.62,27.44-20.85,47.24,3.53,25.21,19.35,40.31,42.21,49.18,8.06,3.13,16.6,4.61,25.95,7.18-5.05,1.89-8.98,3.3-12.87,4.82-19.56,7.61-36.28,20.58-55.28,29.26-1.07.49-2.45,1.22-2.1,2.39.55,1.87,2.48,1.45,3.93,1.33,11.63-.98,23.29-1.76,34.89-3.09,30.91-3.54,59.92-12.36,85.15-31.44,2.82-2.13,4.96-5.25,8.58-6.29.4,7.49-1.75,10.98-8.46,13.37-3.61,1.28-7.29,2.34-10.92,3.57-24.74,8.33-44.08,23.12-54.54,47.57-12.89,30.13-8.72,59.12,7.34,86.96,7.23,12.54,16.6,24.07,18.45,39.15.14,1.14.49,2.43,1.8,2.64,1.37.22,2-.95,2.39-2.05,6.3-17.71,19.72-28.98,34.43-39.56,30.61-22.03,40.13-50.26,30.57-86.67-4.14-15.78-11.02-30.59-15.75-46.16-2.36-7.75-1.64-14.14,3.19-20.99,3.21-4.55,7.62-7.72,11.26-12.19,2.15,5.37,4.47,10.81,7.78,15.71,1.18,1.74.41,3.27-.22,4.87-9.26,23.5,6.25,46.54,30.23,47.58,5.24.23,6.83,2.25,8.06,7.14,6.51,25.77,23.09,41.29,49.27,46.06,18.15,3.31,35.59.1,52.82-6.11,17.2-6.2,32.37-16.22,45.87-27.64,17.76-15.03,29.64-35.19,39.71-56.35,6.59-13.85,9.77-28.05,9.76-43.16,0-2.37.54-4.13,2.16-6.14,4.45-5.57,11.35-9.43,12.61-17.34.11-.69.88-1.73,1.59-1.11,2.52,2.19,4.94-.18,7.14.07,17.41,1.95,33.7-1.22,49.6-8.46,20.45-9.32,38.31-22.07,51.82-39.9,29.04-38.34,35.73-81.81,26.14-128.02ZM170.1,104.2c4.84-9.08,11.98-15.37,21.93-18.1,3.82-1.05,5.17-2.54,4.32-6.79-5.23-25.98,5.99-45.27,26.27-59.77,22.34-15.96,46.72-19.06,72.36-8.11,6.54,2.8,12.48,6.68,18.33,10.69,1.88,1.29,3.19,1.96,5.41,0,31.93-28.36,70.74-19.86,97.66-1.77,25.72,17.29,41.84,42.1,52.68,70.68,9.77,25.76,15.07,52.12,11.82,79.85-1.2,10.28-6.34,17.47-14.81,22.88-3.55,2.27-3.45-.78-3.96-2.43-5.53-18.11-15.52-33.62-27.71-47.86-4.86-5.69-4.76-5.67-7.92.64-8.29,16.54-12.22,34.12-13.62,53.02-4.77-9.14-10.29-17.97-14.14-27.48-9.11-22.48-12.66-46.48-17.68-70.06-.83-3.89-1.73-7.77-3.02-11.57.33,12.84,3.03,25.32,5.75,37.76,2.98,13.61,6.46,27.11,9.72,40.66-22.88-25.33-49.87-43.66-84.4-48.88-3.22-.49-5.03-2.25-6.81-4.61-3.14-4.17-4.84-9.27-8.56-13.05.56,4.65,3.67,8.09,5.95,11.85,2.22,3.68,2.54,5.02-2.54,4.86-10.16-.33-20.19,1.06-29.92,4.04-2.96.91-4.95.29-7.17-1.73-8.34-7.63-13.64-17.27-18.68-27.17-3.61-7.11-6.2-14.74-10.79-21.35,5.66,17.79,12.86,34.82,26.06,48.48,3.45,3.57,2.74,4.43-1.12,6.51-22.05,11.83-33.54,32.71-31,55.45.51,4.57,2.15,8.82,3.78,13.3-17.25-5.54-33.95-10.65-46.45-24.7-17.37-19.52-22.46-45.12-11.75-65.22ZM447.3,225.18c1.02,5.26,1.99,10.52,3.01,15.78,2.07,10.71.96,21.35-.64,31.99-.21,1.38-.43,2.8-2.11,2.96-2.09.2-2.46-1.4-2.65-3-2.39-19.93-11.72-36.64-24.34-51.71-2.94-3.51-1.44-7.33-1.94-10.96-2.89-20.61.43-40.42,8.46-59.51,2.74-6.5,2.92-6.45,7.37-1.03,32.56,39.63,36.99,83.86,21.47,131.34-.83,2.55-1.79,5.05-2.72,7.56-.12.33-.46.58-.7.87l-1.96.05c4.24-27.05,5.24-53.81-6.21-79.44.99,5.03,1.99,10.05,2.96,15.08ZM334.24,462.85c10.42-18.91,23.84-34.64,43.51-45.06,28.62-15.16,48.45-38.85,60.89-68.57,2.37-5.65,5.67-9.07,11.12-11.18,15.18-5.88,30.47-11.38,46.48-14.58,3.34-.67,7.83-2.05,9.7.71,1.51,2.24-2.38,5.1-4.18,7.4-6.14,7.81-12.1,15.89-20.17,21.88-4.68,3.47-4.92,8.36-5.38,13.29-2.21,23.75-10.25,45.43-23.18,65.35-13.99,21.55-34.66,35.36-56.34,47.82-38.93,22.37-81.09,27.16-124.96,22.43-5.28-.57-6.11-2.25-4.58-7.25,7.12-23.3,20.57-42.1,39.45-57.21,1.45-1.16,3.23-2.65,4.9-2.71,14.55-.48,28.83-2.67,43.17-6.41-15.04,15.41-26.15,32.77-30.29,54.05,3.27-6.66,6.28-13.46,9.85-19.95ZM436.41,343.6c-9.91,25.46-25.53,45.92-47.14,62.16-.38.28-.95.3-2.58.79,16.52-20.8,17.1-43.8,12.82-67.59,0,9.44.52,18.92-.12,28.32-1.09,15.96-7.03,30.04-18.16,41.77-3.87,4.08-8.37,6.39-14.15,6.45-21.55.25-42.65-1.92-60.94-14.49-10.9-7.49-19.55-17.69-28.42-27.48-1.78-1.97-3.28-4.24-5.63-5.64,16.13,22.91,33.95,43.46,64.03,47.99,9.67,1.46,19.28,2.97,29.35,2.19-2.78,2.86-5,4.06-13.45,6.51-49.81,14.43-94.5,3.12-135.32-27.2-7.39-5.49-13.98-11.9-20.56-18.32-2.67-2.6-2.35-3.82.68-5.93,17.69-12.3,37.51-15.89,58.46-14.21,6.01.48,9.47-1.08,12.57-6.27,11.55-19.32,25.37-36.61,46.76-45.85,21.61-9.34,43.67-12.93,66.18-2.97,3.63,1.61,5.47-.75,7.4-2.64,10.51-10.3,22.81-17.29,37.17-20.62,6.03-1.4,12.1-1.61,18.26-1.11,3.32.27,3.8,1.77,3.76,4.87-.26,20.4-3.45,39.98-10.96,59.26ZM410.91,202.49c.89,2.11,1.66,4.28,2.38,6.45.41,1.23.61,2.54,1.07,4.56-32.1-22.46-64.7-42.67-99.24-59.62,9.12,7.48,20.03,12.06,29.9,18.32,8.35,5.29,17.38,9.47,25.1,15.77-6.49-1.81-13-3.53-19.44-5.5-4.21-1.29-6.48-.3-7.2,4.34-.7,4.5-.62,10.32-3.37,12.96-2.74,2.63-8.09-1.14-12.4-1.57-5.37-.54-10.93-1.3-15.97.32-8.17,2.63-14.89.02-21.68-3.82-1.79-1.01-3.78-1.66-6.19-1.54,4.46,2.5,8.92,4.99,13.8,7.72-5.79,2.65-11.12,4.68-16.05,7.42-17.1,9.48-30.1,22.87-37.5,41.18-1.52,3.76-3.1,3.93-6.31,2.05-15.45-9.06-20.35-24.82-11.84-38.43,1.77-2.84,4.02-5.32,6.9-6.74,5.03-2.49,4.72-5.45,2.08-9.58-8.22-12.86-9.81-26.72-3.35-40.49,7.68-16.35,20.4-27.56,38.22-32.21,32.2-8.42,61.47-.65,88.56,17,23.43,15.27,41.6,35.34,52.53,61.43ZM411.97,264.17c7.19,12.79,7.14,12.81-5.63,19.1-6.22,3.06-11.9,6.95-17,11.63-2.1,1.92-3.28,2.51-4.77-.85-1.79-4.05-4.4-7.74-6.69-11.56,1.04,5.04,4.34,9.14,5.91,13.96.42,1.28,1.2,2.54.2,3.78-1.15,1.44-2.42.43-3.6-.09-14.95-6.66-30.45-7.02-46.09-3.5-4.45,1-6.08-.07-7.16-4.3-3.13-12.3-4.19-24.44.49-36.64,2.56-6.66,6.41-12.21,12.56-15.88,3.26-1.95,4.28-4.43,3.77-8.11-1.9-13.65,0-27.06,2.71-40.44.82-4.02,1.98-5.35,6.38-4.09,25.44,7.29,48.96,17.86,66.35,38.72,10.8,12.96,18.38,27.63,21.52,44.45.75,4.02-.33,4.91-4.17,5.03-5.31.17-11.72,3.21-15.57,1.14-3.77-2.03-4.64-9.1-7.29-13.65-5.29-9.07-9.87-18.65-17.58-26.09,5.23,9.13,10.53,18.23,15.68,27.4ZM269.56,340.02c.6,5.71-4.27,9.55-7.42,13.67-1.54,2-2.72-1.05-3.66-2.13-11.51-13.33-15.75-29.43-17.55-46.45-.32-2.97-.43-6.01-2.41-9.95.54,20.25,3.03,38.59,15.28,54.23,1.1,1.4,3.51,2.77,2.49,4.7-.78,1.46-3.19.26-4.83.53-5.5.91-8.59-1.75-11.4-6.3-13.14-21.22-20.15-43.63-15.28-68.84.87-4.5,1.95-6.54,7.28-5.23,17.5,4.32,30.71,14.02,39.82,29.54,1.9,3.23,2.31,6.14,1.04,9.75-3.01,8.55-4.3,17.29-3.34,26.49ZM207.46,322.07c6.57,10.65,14.43,20.24,24.11,28.25,1.44,1.19,4.12,2.16,3.71,3.96-.46,2-3.26,1.2-5.05,1.54-9.24,1.73-18.47,3.58-26.36,9.09-2.97,2.07-4.23.59-5.99-1.58-8.85-10.94-14.69-23.44-17.63-37-5.49-25.39-4.83-50.56,5.47-74.91,4.2-9.94,4.2-10,14.63-6.69,11.31,3.59,21.31,9.4,29.71,17.86,2.14,2.16,4.1,4.44,5.35,7.44-12.84.28-12.56.33-14.74,13.39-3.34,19.96,1.08,38.35,10.21,55.97,1.78,3.43,3.39,6.96,5.07,10.45-17.26-12.72-29.15-29.12-34.21-50.19-1.92-7.98-3.94-15.93-6.06-24.5-1.03,9.69,6,37.53,11.79,46.92ZM338.51,215.41c2.01,4.08.84,9.72,1.09,14.67.28,5.44-6.14,12.37-11.73,12.04-17.91-1.07-34.41-6.78-49.4-16.47-7.24-4.68-7.05-6.62.1-11.11,17.13-10.75,35.54-15.66,55.77-11.41,2.71.57,6,.72,5.18,5.12-.84,4.55-3.93,2.29-6.27,2.18-1.9-.09-3.79-.44-5.69-.58-.92-.07-1.85.08-3.38.16,4.98,2.83,12.02.72,14.33,5.4ZM304.08,242.92c.11,1.63-.78,2.41-2.39,2.2-1.46-.19-2.38-.98-2.27-2.58.08-1.26.61-2.11,2.04-2.03,1.36.28,2.53.84,2.63,2.41ZM289.71,248.34c-1.82.12-2.69-1.07-2.79-2.79-.09-1.46.41-2.74,2.06-2.72,1.7.02,2.54,1.32,3,2.81.03,1.61-.8,2.6-2.28,2.69ZM262.38,274.42c.26-2.43.87-5.18,4.06-5.08,1.9.06,3.47,1.39,3.64,3.81-.65,2.35-1.99,4.52-4.62,4.93-2.4.37-3.31-1.61-3.09-3.66ZM263,281.79c-.21,1.04-.19,2.38-1.83,2.09-1.18-.21-1.96-1.05-2-2.3-.03-1.09-.03-2.47,1.46-2.47,1.55,0,2.01,1.37,2.37,2.68ZM267.72,280.83c1.35.19,1.44,1.54,1.44,2.71-.01,1.27-.42,2.28-1.91,2.16-1.33-.11-2-.97-1.85-2.29.16-1.36.6-2.81,2.31-2.57ZM270.2,287.86c1.97.27,3.39,1.34,3.56,3.56.12,1.58-.74,2.66-2.34,2.46-1.85-.23-3.05-1.54-3.35-3.36-.24-1.4.09-2.7,2.14-2.66ZM273.87,278.77c2-.14,3.34.98,3.32,3-.02,2.07-1.2,3.8-3.35,3.84-2.25.04-1.51-2.14-1.85-3.47-.21-1.61-.25-3.22,1.89-3.37ZM273.5,296.86c2.94-2.81,2.71-5.89,3.01-9.42,1.72,3.91,4.31,7.67,2.52,12.01-.53,1.3-.74,4.63-3.36,3.08-1.66-.98-3.9-4.03-2.18-5.67ZM276.79,275.22c-2.53.07-3.67-1.72-3.73-4.08-.06-2.56,1.71-3.85,3.88-4.11,2.42-.29,3.2,1.49,3.25,3.66-.56,1.95-.64,4.45-3.4,4.53ZM279.46,263.7c-1.95-.28-3.06-1.66-2.72-3.66.31-1.85,1.43-3.09,3.85-2.97,1.82.28,2.56,1.7,2.29,3.63-.26,1.88-1.33,3.29-3.42,3ZM279.83,240.13c2.29-.21,3.11,1.7,3.58,3.63-.57,2.34-1.51,4.85-3.96,5.01-2.09.14-3.73-1.8-3.8-4.15-.09-2.74,1.73-4.25,4.19-4.48ZM275.42,238.36c-2.35.04-3.21-1.72-3.24-3.83-.04-2.26,1.27-3.43,3.46-3.76,2.08.3,3.61,1.25,3.61,3.57,0,2.46-1.41,3.98-3.82,4.02ZM283.14,236.51c-.05-1.15.09-2.52,1.63-2.48,2.07.06,3.57,1.12,4.03,3.1.04,1.72-.59,2.94-2.17,2.99-2.31.07-3.41-1.41-3.5-3.61ZM281.2,252.09c.02-1.69,1.52-2.03,2.82-2.11,1.6-.1,2.44.84,2.25,2.47-.18,1.5-.98,2.39-2.71,2.28-1.33-.31-2.38-1.16-2.36-2.64ZM291.94,239.5c-.08-1,.45-1.79,1.72-1.8,1.55.53,2.42,1.68,2.43,3.35,0,.74-.43,1.56-1.36,1.47-1.74-.19-2.67-1.35-2.79-3.02ZM274.42,226.76c.27,1.62-.75,1.92-1.61,2.16-.9.25-1.47-.3-1.52-1.19-.06-.96.05-2.23,1.08-2.33.69-.07,1.48.94,2.06,1.35ZM273.51,242.44c-.17,1.23-.11,2.91-1.99,2.96-1.2.03-1.65-.87-1.42-1.95.24-1.19.66-2.35.98-3.48,1.7.41,2.62,1.14,2.44,2.47ZM272.05,248.29c2.58-.04,3.8,2.07,4.27,4.06-.03,2.85-1.12,4.56-3.59,4.78-2.99.26-4.03-1.84-4.08-4.34-.05-2.25.93-4.46,3.41-4.5ZM269.77,259.77c2.12.5,3.83,1.56,3.69,3.75-.11,1.83-.84,4.02-3.29,3.77-1.9-.2-3.74-1.3-3.63-3.63.09-2,1.07-3.58,3.23-3.89ZM267.59,228.55c.07,1.33-.17,2.67-.27,4-1.18,14.37-3.63,28.43-9.87,41.62-1.74,3.68-3.32,5.19-7.67,2.54-8.44-5.15-8.61-4.82-6.13-14.71,3.39-13.47,10.02-25.15,19.44-35.28,1.1-1.18,2.19-3.48,3.92-2.79,1.89.75.48,3.03.57,4.62ZM285.79,296.01c7.38-11.04,18.15-17.83,29.83-23.42,3.25-1.56,4.9-1.14,4.79,3-.19,6.76,1.63,13.24,3.4,19.7.54,1.96,1.03,3.77-1.61,4.61-20.34,6.4-35.49,19.73-49.28,38.05-.55-16.88,4.8-29.85,12.88-41.93ZM320.78,265.4c-.24,1.81-1.5,2.4-3.04,2.95-12.82,4.57-24.07,11.45-32.62,22.29-.55.7-1.4,1.64-2.09,1.63-1.21-.02-.91-1.43-1.06-2.27-.35-1.86-.55-3.76-.64-4.45.21-19.92,16.26-36.59,33.49-40.81,3.12-.76,6.77.53,10.16,1.01,2.48.35,1.76,1.94,1.1,3.39-2.38,5.22-4.54,10.52-5.3,16.27ZM229.14,203.99c-17.12,16.82-14.85,36.98,5.51,50.35,1.28.84,2.61,1.59,3.96,2.31,2.18,1.16,2.2,2.97,1.43,4.91-.54,1.37-.08,3.68-1.69,3.95-1.88.32-2.37-2.09-3.46-3.3-11.31-12.57-25.56-19.78-41.88-23.38-4.05-.89-6.05,1.22-7.69,4.33-5.68,10.78-9.1,22.31-10.89,34.29-.57,3.81-1.24,5.84-5.89,5.04-4.53-.78-9.19.37-13.51,1.95-3.32,1.21-5.44.29-7.33-2.38-11.99-16.96-12.84-35.14-3.89-53.2,11.87-23.94,32.65-34.85,58.62-36.74,9.65-.18,18.22,2.66,26.17,7.75,1.98,1.27,2.74,1.95.54,4.11ZM169.28,285.97c4.4.22,3.92,3.18,3.94,6.08.08,17.32,1.35,34.41,8.5,50.57,3.42,7.74,7.12,15.29,12.74,21.68,2.88,3.28,3.24,5.86-1.02,7.97-4.98,2.47-4,4.86-.69,8.4,18.74,20.08,40.67,35.3,66.53,44.76,1.71.63,3.37,1.39,4.94,2.44-5.44,0-10.56-1.5-15.65-2.97-27.88-8.05-52.35-21.25-69.83-45.43-6.79-9.39-14.14-18.36-20.39-28.14-.13,3.25,1.99,5.6,3.45,8.16,22.72,39.8,56.11,64.5,101.77,71.73,4.34.69,8.75.96,13.13,1.36,4.33.4,8.68.71,13.56,1.1-7.15,4.71-21.13,7.63-33.51,5.47-38.1-6.66-73.23-20.64-103.52-45.2-13.75-11.15-21.45-26.57-20.11-43.77,1.02-13.03,2.73-25.91,2.83-39.15.14-17.51,18.56-25.8,33.34-25.07ZM92.96,111.9c-20.48-17.37-37.78-37.95-56.43-57.16-.57-.59-.72-1.61-1.04-2.44,14.1,7.4,29.32,11.81,44.37,16.69,25.26,8.19,48.64,19.55,66.67,39.86,9.26,10.43,15.27,22.26,16.14,37.28-11.26-6.64-23.64-8.13-35.45-11.57-13.3-3.87-23.75-13.76-34.24-22.66ZM46.27,402.39c-18.82-13.34-32.38-31.81-39.19-54.02-9.74-31.76-1.56-74.19,32.4-97.4,5.62-3.84,11.94-6.41,18.55-7.38,6.17-.91,4.53-3.15,2.2-6.43-5.16-7.24-9.04-15.12-11.12-23.79-5.76-24.14,4.95-42.11,22.12-57.26,16.65-14.68,37.01-17.69,58.15-16.14,6.05.44,11.88,3.85,17.82,5.92.25-1.88,1.29-1.88,2.8-1.23,8.28,3.58,16.12,7.11,20.84,15.98,5.99,11.25,15.37,19.79,27.39,26.86-5.05,1.15-8.91,1.9-12.71,2.91-30.12,8.01-52.03,34.31-51.43,62.15.25,11.45,2.47,22.48,10.22,31.62,1.18,1.39,3.24,2.96.5,4.57-2.32,1.36-3.58,5.83-7.53,2.99-3.57-2.57-7.17-5.11-10.59-7.88-19.22-15.55-32.79-35.17-41.63-58.99q-.32,4.37.91,7.96c8.66,25.53,25.5,44.62,47.32,59.68,3.26,2.25,4.2,3.47,1.9,7.43-4.63,7.95-4.64,16.81-2.36,25.62.63,2.42,1.34,4.65.53,7.26-8.17,26.51-1.41,48.72,20.1,66.41,5.78,4.75,11.86,9.09,18.36,12.79,6.29,3.58,12.69,6.96,18.85,10.73-60.54-11.38-110.25-39.13-141.75-94.56,15.72,30.01,36.44,54.95,66.46,71.44,29.37,16.13,61.04,24.92,93.96,30.11l-.08,1.75c-6.78,1.39-13.58,2.7-20.34,4.17-52.81,11.45-99.83-2.9-142.65-33.25ZM86.29,588.78c25.16-13.89,47.86-29.36,75.88-33.33,17.77-2.52,35.2-6.86,52.19-14.67-21.11,27.37-63.54,44.88-128.06,48ZM137.53,678.41c-3.46-8.59-4.85-16.25,1.01-25.21,17.12-26.18,36.95-50.17,56.93-74.09,1.51-1.81,3.77-3.22,3.85-5.96-7.45,5.16-12.51,12.61-18.17,19.42-16.97,20.42-33.67,41.06-47.15,65.37-1.63-5.72-1.23-10.38-.71-14.98,4.18-37.16,25.15-60.43,59.97-72.09,3.51-1.18,8.12-4.43,10.49-2.19,1.9,1.79-2.1,6.32-3.13,9.75-5.54,18.46-16.53,33.79-27.84,49-11.3,15.2-21.93,30.87-31.78,47.06-.87,1.43-1.39,3.2-3.48,3.94ZM141.01,686.86c-1.75-.6-2.25-2.95-2.01-4.92.11-.88.73-1.74,1.24-2.53,11.14-17.63,22.86-34.86,35.27-51.62.47-.64,1.22-1.07,1.88-1.57-6.35,12.54-14.44,24.03-21.51,36.14-4.15,7.1-8.23,14.24-12.39,21.33-.71,1.21-1.01,3.67-2.47,3.17ZM142.71,692.69c-1.41-2.52.29-4.42,1.45-6.33,13.52-22.23,27.09-44.44,40.75-66.84-3.21,32.73-18.8,60.75-32.58,90.28-3.31-5.88-6.48-11.49-9.62-17.11ZM164.12,735.17c-2.4-8.33-4.95-14.64-8.79-20.35-.98-1.46-.57-2.9,0-4.37,5.13-12.96,10.62-25.76,18.03-37.92-2.98,20.2-5.97,40.41-9.25,62.63ZM181.99,714.56c-5.35,5.21-9.65,11.26-14.53,17.22,3.07-18.8,6.13-37.6,9.2-56.4,2.22,11.77,2.93,23.64,6.49,35.02.51,1.63.05,2.98-1.16,4.15ZM197.87,702.11c-1.81,1.05-3.43,2.42-5.14,3.65-7.5,5.39-7.24,5.33-9.2-3.48-6.09-27.29-3.49-53.89,5.84-80.02.17-.47.62-.84,1.33-1.78-.32,5.94-.69,11.24-.87,16.54-.68,19.94,2.53,39.22,10.29,57.62,1.51,3.58.93,5.63-2.26,7.47ZM204.98,696.25c-2.94,1.26-2.78-1.75-3.32-3.24-7.6-20.88-11.2-42.32-8.73-64.58,1.97,16.04,4.23,32.04,8.79,47.59,1.45,4.93,3.31,9.75,5.24,14.52,1.09,2.7.36,4.71-1.98,5.71ZM210.91,690.86c-2.74.73-2.52-1.83-3.04-3.19-5.69-14.75-8.43-30.2-10.56-45.76-.88-6.44-1.06-12.97-1.8-19.44-1.81-15.79,3.67-29.94,9.62-44.03-3.54,32.8,3.07,63.97,14.53,94.41,2,5.32-3.29,16.56-8.75,18.01ZM229.81,620.55c4.03,17.02,4.08,33.73-3.4,49.93-.68,1.47-1,3.9-2.95,3.78-1.95-.13-1.85-2.6-2.4-4.12-9.95-27.6-15.89-55.86-13.62-85.41.26-3.42.82-6.83,1.44-10.21.54-2.99,1.36-5.92,2.51-10.84,4.54,20.86,13.96,38.04,18.42,56.88ZM232.79,530.25c-.74-4.87-2.89-4.89-6-2.45-13.48,10.56-29.33,15.72-45.62,19.36-30.55,6.82-58.99,2.17-82.37-19.81-20.71-19.49-22.81-56.56,7.33-75.59,10.74-6.78,21.2-10.64,34.45-8.96,22.52,2.87,44.62-1.98,66.37-7.59,6.16-1.59,11.7-1.77,17.83.39,12.11,4.26,24.6,7.27,37.52,7.97,9.86.54,19.29-1.73,30-5.44-44.35,35.76-94.53,50.53-148.87,53.76,60.54,1.64,113.05-19.38,159.88-56.77-8.74,8.92-17.46,17.36-24.29,27.52-7.76,11.54-13.8,23.84-16.89,37.48-.71,3.13-3.08,6.05,3.88,4.83,6.89-1.21,14.38,1.1,21.62,1.78,3.79.36,7.6.53,12.62.87-14.12,11.33-30.65,13.83-46.11,19.06,12.46-.4,25.01-2.04,35.51-8.48,12.58-7.71,25.5-11.56,40.14-12.6,17.63-1.25,34.57-6.45,50.82-13.6,1.29-.57,2.7-2.17,4.13-.83,1.18,1.11-.02,2.56-.55,3.68-18.57,39.03-47.09,66.36-90.71,74.56-20.24,3.81-38.51-1.08-51.93-18.15-4.84-6.15-7.61-13.33-8.77-20.98ZM470.29,530.03c-2.02,26.23-11.94,49.24-28.48,69.57-20.71,25.46-45.71,44.55-77.94,52.98-11.59,3.03-23.35,4.12-35.29,2.28-26.03-4.01-43.37-20.01-48.88-45.82-1.1-5.17-2.95-7.54-8.54-7.54-10.89,0-20-3.84-26.69-13.12-6.1-8.46-6.05-17.42-3.92-26.86.55-2.41,1.32-3.92,4.12-1.55,21.5,18.24,45.61,16.97,69.82,7.68,31.56-12.11,54.34-34.38,69.58-64.46.86-1.7,1.72-3.4,2.6-5.09.06-.12.33-.13.61-.22,8.73,44.15-14.38,76.52-39.81,108.07,26.51-28.2,48.59-58.33,43.23-102.08,4.94,5.4,7.93,9.81,12.09,13.06,18.8,14.67,39.11,18.36,61.39,8.69,6.38-2.77,6.65-2.58,6.11,4.39ZM591.2,455.32c-19.89,21.85-44,37.43-73.88,42.17-7.99,1.27-16.05-.06-23.96-1.39-4.57-.77-7.31.15-8.43,5.04-2.01,8.74-8.25,13.84-15.81,17.88-20.96,11.2-41.32,11.32-61.1-2.79-5.71-4.08-10.38-9.1-13.71-15.25-5.36-9.9-4.43-13.03,5.16-18.42,9.86-5.55,19.25-11.81,28.23-18.69,1.18-.9,2.88-2.46,3.75-2.14,1.93.73.89,3,.96,4.59.45,11.02,6,26.21,13.68,35.84-2.57-6.04-4.73-10.88-6.69-15.8-1.41-3.55-2.86-7.14-3.72-10.84-2.22-9.53-2.47-18.29,7.08-24.99,4.39-3.08,7.48-8.15,10.75-12.61,3.25-4.44,5.99-9.27,9.85-15.33.25,19.23,5.34,35.4,18.09,48.6-1.06-2-2.03-4.05-3.19-5.99-5.15-8.59-9.48-17.4-11.03-27.51-1.69-10.98-1.83-21.32,3.22-31.85,6-12.5,8.33-26.24,9.44-40.06.38-4.7,2.15-8.13,5.86-11.19,9.68-7.98,16.92-18.17,24.37-28.15,2.92-3.9,1.6-5.8-2.78-6.61-8.82-1.63-17.1.88-25.4,3.2-3.95,1.11-7.88,2.27-11.82,3.41,19.01-10.74,40.02-11.44,60.92-12.63-26.96-1.72-52.74,1.75-76.09,17.14,7.47-8.88,15.68-16.78,24.82-23.76,9.33-7.13,19.08-13.38,30.35-17.14,10.99-3.67,22.13-6.82,33.09-10.95-4.39.86-8.77,1.76-13.17,2.59-32.9,6.19-57.73,25.28-79.26,49.63-.89,1-1.63,2.2-2.68,2.97-.86.62-2.38,1.31-3.09.95-1.15-.6-.4-2.04-.09-3.11,2.68-9.02,4.43-18.22,5.54-27.56.51-4.32,3.56-7.57,5.08-11.49,11.12-28.77,16.46-58.19,9.89-88.89-.67-3.14.26-4.95,2.56-6.88,25.52-21.42,54.3-31.16,87.71-25.15,24.85,4.48,47.25,26.99,51.47,52.03,2.79,16.58-4.15,28.47-20.51,35.38-1.96.83-5.31.45-5.37,3.36-.04,2.34,3.09,1.32,4.63,2.41,10.04,7.04,18.08,15.65,24.02,26.54,26.51,48.65,18.57,122.49-18.7,163.43ZM460.48,30.34l-.12.22.08-.29s.03.05.05.07ZM464.69,32.06s-.04-.06-.06-.1h.24s-.18.1-.18.1ZM230.23,69.57c-.07-.12-.15-.24-.22-.37.07.1.17.18.21.29,0,.02,0,.05.01.08ZM230.29,69.93c-.02-.12-.03-.24-.06-.36.05.09.11.17.16.26,0,0-.1.1-.09.1ZM147.66,145.79c-.16.05-.32.11-.48.16,0,0,.1-.04.11-.05.13-.05.25-.08.37-.11ZM269.83,364.06c.55,1.03,1.09,2.06,1.64,3.1-.94-.82-1.35-1.92-1.64-3.1ZM271.47,367.16c.1.09.18.19.29.27,0,0-.1.1-.1.1-.07-.12-.13-.25-.2-.37ZM269.76,363.8c.02.09.05.18.07.27-.05-.09-.1-.19-.15-.28l-.23-.04s.2-.01.2-.02c0,0,0,0,0,0,0,0,0,0,0,0l.11.08ZM377.68,282.17s.12.05.12.05l-.32-.06s.2,0,.2,0ZM158.31,351.17l-.32-.04s.19,0,.19,0c0,0,.13.04.13.04ZM200.6,571.95s-.1-.1-.1-.1c.05-.03.1-.07.15-.1-.02.07-.03.13-.05.2ZM201.38,571.25c-.24.16-.49.33-.73.49.07-.28.13-.56.2-.84.18.12.35.23.53.35ZM200.6,571.95c-.13,0-.18.07-.29.09.06-.06.13-.13.19-.19,0,0,.1.1.1.1ZM200.31,572.04c-.28.28-.56.57-.84.85.09-.49.37-.76.84-.85ZM199.35,573.01s.08-.09.13-.13c-.01.07-.07.1-.07.18,0,0-.06-.06-.06-.06Z"/>
</svg>